<svg width="56" height="58" viewBox="0 0 56 58" fill="none" xmlns="http://www.w3.org/2000/svg">
<path d="M53.7069 29.5506C53.6583 28.0656 53.9742 26.6042 53.877 25.1193C53.8527 24.695 53.8284 24.2943 53.8041 23.8936C54.0228 23.4929 54.5816 22.4793 54.8246 21.3715C55.1161 20.0987 55.6264 18.5194 55.6264 18.5194C55.6264 18.5194 55.3834 17.5059 55.0189 18.5194C54.6788 19.4387 54.3143 20.3108 53.8284 21.2772C53.8041 21.3244 53.7555 21.3479 53.7069 21.3715C53.7069 21.0415 53.7069 20.7351 53.7069 20.4051C53.8041 17.2466 53.6097 14.1117 53.7555 10.9532C53.8284 9.3975 53.9013 7.8654 53.9742 6.30972C53.9985 5.39046 54.0471 4.47119 54.12 3.55193C54.1686 2.86837 54.6302 1.05342 54.2657 0.417003C53.8527 -0.337264 52.2466 0.134152 51.5663 0.275577C50.9102 0.393431 49.9627 0.478105 49.4281 0.87881C48.8207 1.35023 49.1852 3.94302 49.1366 4.81514C49.1366 6.45114 48.8207 8.65974 49.1366 10.3804C48.6749 9.81472 47.4358 8.33681 47.1685 7.74754C46.7555 6.87542 46.1967 6.16829 46.1967 6.16829C46.1967 6.16829 45.8808 7.11113 46.9256 8.52538C47.9703 9.93963 49.0151 13.051 49.0151 13.0746C49.1609 15.2195 49.088 17.3645 48.9665 19.5565C48.9179 20.8058 49.2338 21.9843 49.1366 23.2336C49.0151 24.4593 48.8207 25.6614 48.6506 26.8871C48.4806 28.3013 48.5049 29.6213 48.5291 31.0356C48.6263 34.2883 48.7478 37.5411 48.9179 40.7939C47.8002 38.3897 46.5125 36.0562 45.0304 33.8169C45.1033 33.9112 45.079 33.9112 45.0304 33.8169C44.7631 33.4162 44.666 32.1434 44.7631 31.3891C45.492 30.5641 46.2938 30.4934 46.0995 27.9478C46.0509 27.2642 45.4192 26.345 44.6902 25.3314C43.9613 24.3179 44.0585 22.385 43.7913 22.5265C43.4268 23.3986 43.3053 26.015 43.1353 26.6514C42.9652 27.2878 43.1838 28.4899 43.5726 29.6684C43.8156 30.352 44.2529 30.682 44.2529 31.3184C44.2529 31.7427 44.18 32.497 44.2772 32.7798C43.8885 32.2377 43.4997 31.672 43.0867 31.1534C42.1877 29.9984 41.2401 28.8906 40.2439 27.8063C39.3692 26.8399 38.8833 25.4257 38.7375 24.5536C40.0253 23.5872 40.6813 22.6915 40.5841 21.7722C40.414 20.2872 39.4907 19.6037 38.6646 18.708C37.9114 17.9066 37.547 17.388 37.2311 16.3981C36.8667 15.2431 36.4293 13.8053 35.5546 13.0274C33.781 11.4246 32.3717 8.8318 32.4689 6.45114C32.4689 6.45114 32.4689 6.45114 32.4689 6.404C32.4689 6.33329 32.2745 6.33329 32.3231 6.35686C31.6428 7.08756 31.6671 8.69038 31.5942 9.5625C31.3756 11.896 31.2784 13.876 32.0316 15.3609C32.4446 16.1859 32.8091 16.5866 33.1492 17.4587C33.6109 18.6137 33.6838 19.5094 34.1454 20.3108C34.7771 21.4422 34.7528 21.7722 35.7247 22.4558C36.5994 23.0686 36.5508 23.4222 37.3769 24.1293C38.203 24.9778 38.3002 24.9307 38.5917 26.0621C36.9395 24.4593 35.2631 22.9508 33.4408 21.5365C31.5213 20.028 29.4804 18.6609 27.3666 17.4352C25.5686 16.3745 23.965 15.8323 22.9203 13.9703C22.9446 13.876 22.9689 13.8288 22.9931 13.7345C24.451 13.0038 24.4267 10.8825 23.8192 9.63321C23.4548 8.87894 22.8474 8.59609 22.2642 8.03039C21.6082 7.39398 21.2195 6.49829 20.6607 5.76759C19.7131 4.56547 18.4253 4.18834 17.2105 3.31622C16.5788 2.8448 15.8742 1.80768 15.3639 1.64269C16.0199 3.22194 17.3077 4.89547 17.8179 6.80471C18.3281 8.64324 18.4253 11.2125 19.7374 12.6974C20.3448 13.4988 21.4624 13.8995 22.4586 13.8053C22.7016 14.206 22.8231 14.6774 22.9931 15.1017C20.855 14.0881 18.6683 13.1924 16.3844 12.5089C16.3844 12.5089 16.3844 12.5089 16.3601 12.5089C15.4125 11.3067 15.3347 10.8353 14.3629 9.63321C14.3629 9.17048 14.4115 7.60959 14.3629 6.12462C14.3872 5.32321 14.2949 0.982703 13.5174 0.746994L9.45979 0.417002C8.58511 0.440573 9.11964 3.29265 9.16823 3.95263C9.28972 5.95616 9.07104 5.29617 7.27308 5.06046C5.88816 4.8719 4.47894 4.94261 3.11831 4.63619C2.09784 4.40048 1.24745 3.90549 0.324173 3.50479C0.542845 5.36688 1.92777 6.33329 3.26409 7.51183C4.45464 8.57252 5.20784 9.93963 6.25261 11.0946C6.90862 11.8017 7.63753 12.391 8.51222 12.8153C9.62987 13.381 9.50839 13.1688 9.50839 14.4888C9.50839 15.6909 9.75136 16.9402 9.65417 18.1423C9.58128 19.0851 9.24112 19.9101 9.11964 20.8058C8.73089 23.375 9.33831 26.015 9.14394 28.5842C8.94956 31.0356 9.04675 33.5105 9.19253 35.9854C9.07104 36.5983 8.6094 35.3962 7.66183 34.5712C7.54034 34.9012 7.44315 35.2547 7.44315 35.2547C7.44315 35.2547 8.60941 37.7533 8.85237 38.9318C9.07105 39.9925 9.48409 41.6424 9.58128 42.2789C9.58128 42.491 9.60558 42.6796 9.60558 42.8917C9.70276 46.7573 9.72706 50.5994 9.58128 54.465C9.55698 55.0778 9.53269 55.6907 9.48409 56.3035C9.36261 58.0242 9.94573 57.5764 11.4521 57.5999C12.0353 57.5999 15.6555 57.9063 16.1414 57.5528C16.4816 57.3171 15.9714 54.63 15.9228 54.1822C15.8013 52.6972 15.6555 51.1887 15.5097 49.7037C15.2667 47.1816 15.2182 44.3535 15.0967 41.8078C14.9752 39.1443 14.7322 36.7868 14.4164 34.1233C13.9304 30.2813 13.8575 26.6042 14.0519 22.7622C14.1491 20.7115 14.1248 18.6609 14.1734 16.6102C14.1734 16.0445 14.3629 13.9815 14.3629 13.9815L14.7565 13.9703C15.3547 13.7345 15.6854 13.3267 16.2629 12.9803C19.6159 14.1352 22.8474 15.7852 25.8359 17.6473C27.2937 18.543 28.7029 19.5094 30.0635 20.523C30.3065 20.7115 33.538 23.1393 31.497 22.5265C30.9382 22.3615 30.8653 21.8665 30.5009 21.3715C29.9906 20.6879 29.286 20.1458 28.4599 19.863C26.9292 19.3444 25.3742 19.8865 23.8192 19.8394C22.0942 19.7923 20.442 19.1323 18.7169 19.4151C17.3563 19.6273 15.9957 20.1458 14.7565 20.6879L15.0967 20.7587C16.7974 21.1358 18.6683 21.3008 20.0775 22.3615C21.7054 23.5636 22.9931 24.7421 25.107 25.0721C27.0021 25.355 28.9945 25.19 30.2336 23.6343C30.8167 22.9036 30.7924 22.6915 31.8858 22.88C32.8334 23.045 33.6838 23.5636 34.3641 24.2471L34.7285 24.5064C39.1506 28.702 42.8437 33.6283 45.4435 39.0968C44.7631 38.3897 44.1314 37.6354 43.3782 36.999C43.0381 36.6926 42.5764 36.4804 42.2606 36.174C41.9933 35.9147 41.8475 35.8204 41.7989 35.7969C41.8232 35.7497 41.7989 35.6083 41.6774 35.2312C41.0943 33.3219 40.7542 32.1905 38.8104 31.1298C37.0367 30.1634 35.0201 29.7863 33.0035 29.9277C30.9625 30.0692 29.0917 29.8806 27.3423 28.702L27.0264 28.4428C27.3909 29.692 27.8282 30.9648 28.8487 31.8605C29.8449 32.7327 31.0111 32.8741 32.226 33.2748C33.8052 33.7934 34.2183 35.3255 35.5789 36.1269C37.2797 37.1168 38.8833 36.834 40.657 36.2919C42.2606 35.7969 43.3539 37.4704 44.2529 38.5782C45.322 39.8511 46.1724 40.7232 46.7555 42.2789C47.3386 43.7638 48.432 45.8616 48.4563 47.4645C48.4563 48.0773 48.2133 48.7844 48.0918 49.3973C47.9946 49.798 47.9217 51.7779 48.0189 52.1786C48.1404 53.0508 48.3105 53.8993 48.3348 54.7714C48.3591 55.3843 48.0189 57.4821 48.5049 57.8592C48.9422 58.1892 51.2018 57.8356 51.7363 57.8356C52.9026 57.8356 54.8975 58.1421 54.8489 56.7749C54.6545 49.963 54.4358 43.151 54.2171 36.339L53.7069 29.5506Z" fill="white"/>
</svg>
