<svg width="162" height="36" viewBox="0 0 162 36" fill="none" xmlns="http://www.w3.org/2000/svg">
<path d="M3.35918 4.09998V14H2.35368V3.19998C2.35368 2.63998 2.21292 2.19998 1.93138 1.87998C1.66325 1.55998 1.20072 1.39997 0.543794 1.39997H0.443245V0.799975H1.85094C2.60171 0.799975 3.21171 0.899975 3.68094 1.09998C4.16357 1.28664 4.56577 1.58664 4.88753 1.99998L11.8053 9.99998V0.799975H12.8108V14.06H11.8858L3.35918 4.09998Z" fill="white"/>
<path d="M18.3085 14.2C17.2226 14.2 16.378 13.96 15.7747 13.48C15.1848 12.9866 14.8898 12.3266 14.8898 11.5C14.8898 10.8333 15.044 10.28 15.3524 9.83998C15.6741 9.39998 16.2305 9.06664 17.0215 8.83998C17.8125 8.61331 18.9118 8.49998 20.3195 8.49998H20.6212C20.6212 7.33998 20.4603 6.51998 20.1385 6.03998C19.8168 5.54664 19.3408 5.29998 18.7107 5.29998C18.1879 5.29998 17.7589 5.42664 17.4237 5.67998C17.0885 5.93331 16.8472 6.40664 16.6997 7.09998H15.5937C15.5937 6.64664 15.6205 6.25998 15.6741 5.93998C15.7412 5.61998 15.8819 5.33998 16.0964 5.09998C16.512 4.63331 17.5175 4.39998 19.1129 4.39998C20.4536 4.39998 21.4725 4.75331 22.1696 5.45998C22.8802 6.15331 23.2355 7.19998 23.2355 8.59998V14H21.5261L20.8223 13.1H20.7217C20.6011 13.2866 20.4134 13.4733 20.1586 13.66C19.7028 14.02 19.0861 14.2 18.3085 14.2ZM18.9118 13.2C19.1934 13.2 19.4347 13.1466 19.6358 13.04C19.8369 12.92 20.0313 12.76 20.219 12.56C20.3933 12.3733 20.5273 12.1533 20.6212 11.9V9.39998H20.3195C19.3676 9.39998 18.6772 9.57331 18.2482 9.91998C17.8192 10.2533 17.6047 10.78 17.6047 11.5C17.6047 12.0466 17.7186 12.4666 17.9465 12.76C18.1745 13.0533 18.4962 13.2 18.9118 13.2Z" fill="white"/>
<path d="M28.8279 14.2C27.9028 14.2 27.1856 13.9533 26.6761 13.46C26.1667 12.9533 25.912 12.2266 25.912 11.28V5.49998H24.7054V4.59998H25.912V2.79998L26.9174 1.59998H28.5262V4.59998H30.7383V5.49998H28.5262V11.4C28.5262 12.12 28.6134 12.62 28.7877 12.9C28.962 13.1666 29.2234 13.3 29.572 13.3C29.9473 13.3 30.3227 13.2133 30.6981 13.04C30.8456 12.96 30.9998 12.8666 31.1606 12.76L31.4422 13.32C31.2679 13.4666 31.0601 13.6133 30.8188 13.76C30.2557 14.0533 29.5921 14.2 28.8279 14.2Z" fill="white"/>
<path d="M35.3941 14.2C34.3081 14.2 33.4635 13.96 32.8602 13.48C32.2703 12.9866 31.9754 12.3266 31.9754 11.5C31.9754 10.8333 32.1296 10.28 32.4379 9.83998C32.7597 9.39998 33.3161 9.06664 34.107 8.83998C34.898 8.61331 35.9974 8.49998 37.4051 8.49998H37.7067C37.7067 7.33998 37.5458 6.51998 37.2241 6.03998C36.9023 5.54664 36.4264 5.29998 35.7963 5.29998C35.2734 5.29998 34.8444 5.42664 34.5092 5.67998C34.1741 5.93331 33.9328 6.40664 33.7853 7.09998H32.6792C32.6792 6.64664 32.7061 6.25998 32.7597 5.93998C32.8267 5.61998 32.9675 5.33998 33.182 5.09998C33.5976 4.63331 34.6031 4.39998 36.1985 4.39998C37.5391 4.39998 38.558 4.75331 39.2552 5.45998C39.9657 6.15331 40.321 7.19998 40.321 8.59998V14H38.6117L37.9078 13.1H37.8073C37.6866 13.2866 37.4989 13.4733 37.2442 13.66C36.7884 14.02 36.1717 14.2 35.3941 14.2ZM35.9974 13.2C36.2789 13.2 36.5202 13.1466 36.7213 13.04C36.9224 12.92 37.1168 12.76 37.3045 12.56C37.4788 12.3733 37.6129 12.1533 37.7067 11.9V9.39998H37.4051C36.4532 9.39998 35.7628 9.57331 35.3338 9.91998C34.9047 10.2533 34.6902 10.78 34.6902 11.5C34.6902 12.0466 34.8042 12.4666 35.0321 12.76C35.26 13.0533 35.5818 13.2 35.9974 13.2Z" fill="white"/>
<path d="M42.6556 3.39998C42.6556 2.71998 42.5618 2.21998 42.3741 1.89998C42.1864 1.56664 41.811 1.39997 41.2479 1.39997H41.0468V0.799975H43.46C43.9427 0.799975 44.3113 0.879976 44.5661 1.03998C44.8208 1.19998 45.0018 1.46664 45.109 1.83998C45.2163 2.19998 45.2699 2.71998 45.2699 3.39998V14H42.6556V3.39998Z" fill="white"/>
<path d="M47.8402 3.39998C47.8402 2.71998 47.7464 2.21998 47.5587 1.89998C47.371 1.56664 46.9956 1.39997 46.4325 1.39997H46.2314V0.799975H48.6446C49.1273 0.799975 49.4959 0.879976 49.7507 1.03998C50.0054 1.19998 50.1864 1.46664 50.2936 1.83998C50.4009 2.19998 50.4545 2.71998 50.4545 3.39998V14H47.8402V3.39998Z" fill="white"/>
<path d="M54.6336 3.51998C54.151 3.51998 53.7756 3.37331 53.5074 3.07998C53.2527 2.78664 53.1253 2.42664 53.1253 1.99998C53.1253 1.65331 53.2259 1.37998 53.427 1.17998C53.6415 0.979976 53.9096 0.879976 54.2314 0.879976C54.714 0.879976 55.0827 1.02664 55.3374 1.31998C55.6056 1.61331 55.7396 1.97331 55.7396 2.39998C55.7396 2.74664 55.6324 3.01998 55.4179 3.21998C55.2168 3.41998 54.9553 3.51998 54.6336 3.51998ZM53.3264 7.19998C53.3264 6.51998 53.2326 6.01998 53.0449 5.69998C52.8572 5.36664 52.4818 5.19998 51.9188 5.19998H51.7177V4.59998H54.1308C54.6135 4.59998 54.9822 4.67998 55.2369 4.83998C55.4916 4.99998 55.6726 5.26664 55.7799 5.63998C55.8871 5.99998 55.9407 6.51998 55.9407 7.19998V14H53.3264V7.19998Z" fill="white"/>
<path d="M61.101 14.2C60.015 14.2 59.1704 13.96 58.5671 13.48C57.9772 12.9866 57.6823 12.3266 57.6823 11.5C57.6823 10.8333 57.8365 10.28 58.1448 9.83998C58.4666 9.39998 59.0229 9.06664 59.8139 8.83998C60.6049 8.61331 61.7043 8.49998 63.112 8.49998H63.4136C63.4136 7.33998 63.2527 6.51998 62.931 6.03998C62.6092 5.54664 62.1333 5.29998 61.5032 5.29998C60.9803 5.29998 60.5513 5.42664 60.2161 5.67998C59.881 5.93331 59.6396 6.40664 59.4922 7.09998H58.3861C58.3861 6.64664 58.4129 6.25998 58.4666 5.93998C58.5336 5.61998 58.6744 5.33998 58.8889 5.09998C59.3045 4.63331 60.31 4.39998 61.9054 4.39998C63.246 4.39998 64.2649 4.75331 64.9621 5.45998C65.6726 6.15331 66.0279 7.19998 66.0279 8.59998V14H64.3185L63.6147 13.1H63.5141C63.3935 13.2866 63.2058 13.4733 62.9511 13.66C62.4952 14.02 61.8785 14.2 61.101 14.2ZM61.7043 13.2C61.9858 13.2 62.2271 13.1466 62.4282 13.04C62.6293 12.92 62.8237 12.76 63.0114 12.56C63.1857 12.3733 63.3198 12.1533 63.4136 11.9V9.39998H63.112C62.1601 9.39998 61.4696 9.57331 61.0406 9.91998C60.6116 10.2533 60.3971 10.78 60.3971 11.5C60.3971 12.0466 60.5111 12.4666 60.739 12.76C60.9669 13.0533 61.2887 13.2 61.7043 13.2Z" fill="white"/>
<path d="M73.4302 3.13998C73.1219 2.40664 72.8135 1.88664 72.5051 1.57998C72.2102 1.27331 71.8549 1.09331 71.4393 1.03998V0.639975L72.284 0.599976C73.1688 0.599976 73.9464 0.766642 74.6167 1.09998C75.287 1.43331 75.8367 2.11331 76.2657 3.13998L79.4431 10.62L83.6863 0.799975H84.7119L78.9202 14.2H78.1158L73.4302 3.13998Z" fill="white"/>
<path d="M87.5345 14.2C86.4485 14.2 85.6039 13.96 85.0006 13.48C84.4107 12.9866 84.1158 12.3266 84.1158 11.5C84.1158 10.8333 84.27 10.28 84.5783 9.83998C84.9001 9.39998 85.4565 9.06664 86.2474 8.83998C87.0384 8.61331 88.1378 8.49998 89.5455 8.49998H89.8471C89.8471 7.33998 89.6862 6.51998 89.3645 6.03998C89.0427 5.54664 88.5668 5.29998 87.9367 5.29998C87.4138 5.29998 86.9848 5.42664 86.6496 5.67998C86.3145 5.93331 86.0732 6.40664 85.9257 7.09998H84.8196C84.8196 6.64664 84.8465 6.25998 84.9001 5.93998C84.9671 5.61998 85.1079 5.33998 85.3224 5.09998C85.738 4.63331 86.7435 4.39998 88.3389 4.39998C89.6795 4.39998 90.6984 4.75331 91.3956 5.45998C92.1061 6.15331 92.4614 7.19998 92.4614 8.59998V14H90.7521L90.0482 13.1H89.9477C89.827 13.2866 89.6393 13.4733 89.3846 13.66C88.9288 14.02 88.3121 14.2 87.5345 14.2ZM88.1378 13.2C88.4193 13.2 88.6606 13.1466 88.8617 13.04C89.0628 12.92 89.2572 12.76 89.4449 12.56C89.6192 12.3733 89.7533 12.1533 89.8471 11.9V9.39998H89.5455C88.5936 9.39998 87.9032 9.57331 87.4741 9.91998C87.0451 10.2533 86.8306 10.78 86.8306 11.5C86.8306 12.0466 86.9446 12.4666 87.1725 12.76C87.4004 13.0533 87.7222 13.2 88.1378 13.2Z" fill="white"/>
<path d="M101.171 4.79998C101.412 4.97331 101.586 5.16664 101.694 5.37998C101.801 5.57998 101.855 5.68664 101.855 5.69998L100.829 6.47998C100.735 6.35998 100.614 6.23331 100.467 6.09998C100.172 5.83331 99.8302 5.69998 99.4414 5.69998C98.6638 5.69998 98.0672 5.90664 97.6516 6.31998L97.6919 6.61998C97.7187 6.85998 97.7321 7.07998 97.7321 7.27998V14H95.1178V7.19998C95.1178 6.51998 95.0239 6.01998 94.8363 5.69998C94.662 5.36664 94.2933 5.19998 93.7302 5.19998H93.5291V4.59998H95.52C95.9758 4.59998 96.3311 4.65998 96.5858 4.77998C96.8539 4.88664 97.0617 5.07331 97.2092 5.33998C97.9332 4.71331 98.7778 4.39998 99.7431 4.39998C100.32 4.39998 100.795 4.53331 101.171 4.79998Z" fill="white"/>
<path d="M107.123 18C105.594 18 104.388 17.7533 103.503 17.26C102.632 16.78 102.196 15.9933 102.196 14.9C102.196 14.2333 102.464 13.68 103 13.24C103.536 12.8 104.173 12.4866 104.911 12.3C104.307 12.1133 104.006 11.7466 104.006 11.2C104.006 10.7466 104.274 10.4133 104.81 10.2C104.234 9.99998 103.751 9.65331 103.362 9.15998C102.987 8.66664 102.799 8.11998 102.799 7.51998C102.799 6.42664 103.188 5.63331 103.966 5.13998C104.757 4.64664 105.809 4.39998 107.123 4.39998H111.346V4.93998L109.536 5.17998C110.099 5.39331 110.555 5.71998 110.903 6.15998C111.265 6.59998 111.446 7.05331 111.446 7.51998C111.446 8.61331 111.071 9.39998 110.32 9.87998C109.583 10.36 108.517 10.6 107.123 10.6C106.426 10.6 105.916 10.64 105.594 10.72C105.273 10.7866 105.112 10.9466 105.112 11.2C105.112 11.4133 105.273 11.5533 105.594 11.62C105.916 11.6866 106.426 11.7266 107.123 11.74C108.571 11.7666 109.75 12.0533 110.662 12.6C111.587 13.1333 112.05 13.9 112.05 14.9C112.05 15.9933 111.607 16.78 110.722 17.26C109.851 17.7533 108.651 18 107.123 18ZM107.123 9.79998C108.195 9.79998 108.732 9.03998 108.732 7.51998C108.732 6.77331 108.584 6.19998 108.289 5.79998C107.994 5.39998 107.605 5.19998 107.123 5.19998C106.627 5.19998 106.231 5.39331 105.936 5.77998C105.655 6.16664 105.514 6.74664 105.514 7.51998C105.514 9.03998 106.05 9.79998 107.123 9.79998ZM107.123 17.1C107.82 17.1 108.363 16.9133 108.752 16.54C109.14 16.18 109.335 15.6333 109.335 14.9C109.335 14.3133 109.147 13.8266 108.772 13.44C108.41 13.04 107.914 12.78 107.284 12.66L106.338 12.56C105.869 12.76 105.514 13.0466 105.273 13.42C105.031 13.7933 104.911 14.2866 104.911 14.9C104.911 15.6333 105.105 16.18 105.494 16.54C105.883 16.9133 106.426 17.1 107.123 17.1Z" fill="white"/>
<path d="M116.442 14.2C115.357 14.2 114.512 13.96 113.909 13.48C113.319 12.9866 113.024 12.3266 113.024 11.5C113.024 10.8333 113.178 10.28 113.486 9.83998C113.808 9.39998 114.364 9.06664 115.155 8.83998C115.946 8.61331 117.046 8.49998 118.453 8.49998H118.755C118.755 7.33998 118.594 6.51998 118.272 6.03998C117.951 5.54664 117.475 5.29998 116.845 5.29998C116.322 5.29998 115.893 5.42664 115.558 5.67998C115.222 5.93331 114.981 6.40664 114.834 7.09998H113.728C113.728 6.64664 113.754 6.25998 113.808 5.93998C113.875 5.61998 114.016 5.33998 114.23 5.09998C114.646 4.63331 115.651 4.39998 117.247 4.39998C118.588 4.39998 119.606 4.75331 120.304 5.45998C121.014 6.15331 121.369 7.19998 121.369 8.59998V14H119.66L118.956 13.1H118.856C118.735 13.2866 118.547 13.4733 118.293 13.66C117.837 14.02 117.22 14.2 116.442 14.2ZM117.046 13.2C117.327 13.2 117.569 13.1466 117.77 13.04C117.971 12.92 118.165 12.76 118.353 12.56C118.527 12.3733 118.661 12.1533 118.755 11.9V9.39998H118.453C117.502 9.39998 116.811 9.57331 116.382 9.91998C115.953 10.2533 115.739 10.78 115.739 11.5C115.739 12.0466 115.853 12.4666 116.08 12.76C116.308 13.0533 116.63 13.2 117.046 13.2Z" fill="white"/>
<path d="M127.022 14.2C125.454 14.2 124.374 13.9266 123.784 13.38C123.57 13.18 123.436 12.9 123.382 12.54C123.329 12.1666 123.302 11.6533 123.302 11H124.006C124.126 11.6933 124.401 12.2533 124.83 12.68C125.259 13.0933 125.856 13.3 126.62 13.3C127.961 13.3 128.631 12.8466 128.631 11.94C128.631 11.5933 128.483 11.3066 128.189 11.08C127.907 10.8533 127.451 10.6 126.821 10.32L125.775 9.87998C124.917 9.50664 124.274 9.09998 123.845 8.65998C123.416 8.21998 123.201 7.68664 123.201 7.05998C123.201 6.21998 123.55 5.56664 124.247 5.09998C124.958 4.63331 125.883 4.39998 127.022 4.39998C128.591 4.39998 129.67 4.67331 130.26 5.21998C130.474 5.41998 130.608 5.69998 130.662 6.05998C130.716 6.41998 130.742 6.93331 130.742 7.59998H130.039C129.918 6.90664 129.643 6.35331 129.214 5.93998C128.785 5.51331 128.189 5.29998 127.424 5.29998C126.848 5.29998 126.419 5.42664 126.137 5.67998C125.856 5.91998 125.715 6.24664 125.715 6.65998C125.715 6.99331 125.829 7.27331 126.057 7.49998C126.298 7.71331 126.66 7.92664 127.143 8.13998L128.349 8.63998C129.341 9.05331 130.052 9.47331 130.481 9.89998C130.923 10.3133 131.145 10.86 131.145 11.54C131.145 12.3933 130.763 13.0533 129.998 13.52C129.248 13.9733 128.256 14.2 127.022 14.2Z" fill="white"/>
<path d="M137.374 14.2C136.396 14.2 135.537 13.9866 134.8 13.56C134.076 13.12 133.52 12.5333 133.131 11.8C132.742 11.0533 132.548 10.22 132.548 9.29998C132.548 8.37998 132.742 7.55331 133.131 6.81998C133.52 6.07331 134.076 5.48664 134.8 5.05998C135.537 4.61998 136.396 4.39998 137.374 4.39998C138.353 4.39998 139.204 4.61998 139.928 5.05998C140.665 5.48664 141.229 6.07331 141.617 6.81998C142.006 7.55331 142.201 8.37998 142.201 9.29998C142.201 10.22 142.006 11.0533 141.617 11.8C141.229 12.5333 140.665 13.12 139.928 13.56C139.204 13.9866 138.353 14.2 137.374 14.2ZM137.374 13.3C138.058 13.3 138.581 12.9333 138.943 12.2C139.305 11.4666 139.486 10.5 139.486 9.29998C139.486 8.09998 139.305 7.13331 138.943 6.39998C138.581 5.66664 138.058 5.29998 137.374 5.29998C136.69 5.29998 136.168 5.66664 135.806 6.39998C135.444 7.13331 135.263 8.09998 135.263 9.29998C135.263 10.5 135.444 11.4666 135.806 12.2C136.168 12.9333 136.69 13.3 137.374 13.3Z" fill="white"/>
<path d="M144.232 6.89998C143.87 6.15331 143.562 5.63331 143.307 5.33998C143.053 5.03331 142.764 4.86664 142.443 4.83998V4.43998L143.187 4.39998C144.085 4.39998 144.836 4.57331 145.439 4.91998C146.056 5.26664 146.592 5.92664 147.048 6.89998L148.817 10.74L151.552 4.59998H152.638L148.355 14.2H147.631L144.232 6.89998Z" fill="white"/>
<path d="M156.643 14.2C155.557 14.2 154.712 13.96 154.109 13.48C153.519 12.9866 153.224 12.3266 153.224 11.5C153.224 10.8333 153.378 10.28 153.686 9.83998C154.008 9.39998 154.565 9.06664 155.356 8.83998C156.147 8.61331 157.246 8.49998 158.654 8.49998H158.955C158.955 7.33998 158.794 6.51998 158.473 6.03998C158.151 5.54664 157.675 5.29998 157.045 5.29998C156.522 5.29998 156.093 5.42664 155.758 5.67998C155.423 5.93331 155.181 6.40664 155.034 7.09998H153.928C153.928 6.64664 153.955 6.25998 154.008 5.93998C154.075 5.61998 154.216 5.33998 154.431 5.09998C154.846 4.63331 155.852 4.39998 157.447 4.39998C158.788 4.39998 159.807 4.75331 160.504 5.45998C161.214 6.15331 161.57 7.19998 161.57 8.59998V14H159.86L159.156 13.1H159.056C158.935 13.2866 158.747 13.4733 158.493 13.66C158.037 14.02 157.42 14.2 156.643 14.2ZM157.246 13.2C157.527 13.2 157.769 13.1466 157.97 13.04C158.171 12.92 158.365 12.76 158.553 12.56C158.727 12.3733 158.861 12.1533 158.955 11.9V9.39998H158.654C157.702 9.39998 157.011 9.57331 156.582 9.91998C156.153 10.2533 155.939 10.78 155.939 11.5C155.939 12.0466 156.053 12.4666 156.281 12.76C156.509 13.0533 156.83 13.2 157.246 13.2Z" fill="white"/>
<path d="M25.9335 32.168C25.4924 32.168 25.178 32.0373 24.9903 31.776C24.8026 31.5146 24.7088 31.132 24.7088 30.628V22.032H25.8631V30.712C25.8631 30.8986 25.8959 31.0293 25.9616 31.104C26.0273 31.1786 26.1024 31.216 26.1868 31.216C26.2244 31.216 26.2572 31.216 26.2854 31.216C26.3229 31.216 26.3745 31.2066 26.4402 31.188L26.5951 32.056C26.52 32.0933 26.4308 32.1213 26.3276 32.14C26.2244 32.1586 26.093 32.168 25.9335 32.168Z" fill="white"/>
<path d="M29.8733 32.168C29.3009 32.168 28.8223 32 28.4375 31.664C28.0621 31.328 27.8744 30.852 27.8744 30.236C27.8744 29.4893 28.2076 28.92 28.8739 28.528C29.5402 28.1266 30.6053 27.8466 32.0693 27.688C32.0693 27.4733 32.0459 27.2633 31.999 27.058C31.9614 26.8526 31.891 26.6706 31.7878 26.512C31.6846 26.3533 31.5391 26.2273 31.3514 26.134C31.1731 26.0313 30.9432 25.98 30.6617 25.98C30.2675 25.98 29.8968 26.0546 29.5496 26.204C29.2023 26.3533 28.8927 26.5213 28.6205 26.708L28.17 25.91C28.4891 25.7046 28.8786 25.5086 29.3384 25.322C29.7983 25.126 30.305 25.028 30.8587 25.028C31.694 25.028 32.2993 25.2846 32.6747 25.798C33.05 26.302 33.2377 26.9786 33.2377 27.828V32H32.2805L32.182 31.188H32.1397C31.8113 31.4586 31.4594 31.692 31.084 31.888C30.7086 32.0746 30.305 32.168 29.8733 32.168ZM30.2112 31.244C30.5397 31.244 30.8493 31.1693 31.1403 31.02C31.4312 30.8613 31.7409 30.6326 32.0693 30.334V28.444C31.4969 28.5186 31.0136 28.6073 30.6194 28.71C30.2347 28.8126 29.9203 28.934 29.6763 29.074C29.4417 29.214 29.268 29.3773 29.1554 29.564C29.0522 29.7413 29.0006 29.9373 29.0006 30.152C29.0006 30.544 29.1179 30.824 29.3525 30.992C29.5871 31.16 29.8734 31.244 30.2112 31.244Z" fill="white"/>
<path d="M35.3902 32V25.196H36.3474L36.446 26.176H36.4882C36.8166 25.8493 37.1592 25.5786 37.5158 25.364C37.8818 25.14 38.3041 25.028 38.7827 25.028C39.5053 25.028 40.0309 25.252 40.3593 25.7C40.6972 26.148 40.8661 26.8106 40.8661 27.688V32H39.7118V27.842C39.7118 27.198 39.6086 26.736 39.4021 26.456C39.1956 26.1666 38.8672 26.022 38.4167 26.022C38.0601 26.022 37.7457 26.1106 37.4736 26.288C37.2014 26.4653 36.8917 26.7266 36.5445 27.072V32H35.3902Z" fill="white"/>
<path d="M45.4253 32.168C44.5619 32.168 43.8721 31.86 43.356 31.244C42.8492 30.628 42.5958 29.7506 42.5958 28.612C42.5958 28.0613 42.6756 27.5666 42.8351 27.128C43.004 26.68 43.2246 26.302 43.4967 25.994C43.7689 25.686 44.0833 25.448 44.4399 25.28C44.7965 25.112 45.1719 25.028 45.566 25.028C45.9602 25.028 46.3027 25.098 46.5937 25.238C46.8846 25.378 47.1802 25.5693 47.4805 25.812L47.4242 24.65V22.032H48.5926V32H47.6353L47.5368 31.202H47.4946C47.2224 31.4633 46.908 31.692 46.5514 31.888C46.2042 32.0746 45.8288 32.168 45.4253 32.168ZM45.6787 31.202C45.9977 31.202 46.298 31.1273 46.5796 30.978C46.8611 30.8193 47.1427 30.5813 47.4242 30.264V26.708C47.1333 26.4466 46.8517 26.2646 46.5796 26.162C46.3168 26.05 46.0447 25.994 45.7631 25.994C45.491 25.994 45.2329 26.0593 44.9889 26.19C44.7543 26.3113 44.5478 26.4886 44.3695 26.722C44.1912 26.946 44.0504 27.2166 43.9472 27.534C43.844 27.8513 43.7923 28.206 43.7923 28.598C43.7923 29.4193 43.9566 30.0586 44.285 30.516C44.6135 30.9733 45.078 31.202 45.6787 31.202Z" fill="white"/>
<path d="M52.6846 32.168C52.1966 32.168 51.732 32.0793 51.291 31.902C50.8499 31.7246 50.4651 31.5006 50.1366 31.23L50.7138 30.46C51.0141 30.7026 51.3191 30.8986 51.6288 31.048C51.9479 31.1973 52.3139 31.272 52.7268 31.272C53.1773 31.272 53.5151 31.1693 53.7403 30.964C53.9656 30.7586 54.0782 30.5066 54.0782 30.208C54.0782 30.0306 54.0313 29.8766 53.9374 29.746C53.8436 29.6153 53.7216 29.5033 53.5714 29.41C53.4306 29.3073 53.2664 29.2186 53.0787 29.144C52.891 29.0693 52.7033 28.9946 52.5156 28.92C52.2716 28.836 52.0276 28.7426 51.7836 28.64C51.5396 28.528 51.3191 28.3973 51.122 28.248C50.9343 28.0893 50.7795 27.9073 50.6575 27.702C50.5355 27.4966 50.4745 27.2493 50.4745 26.96C50.4745 26.6893 50.5261 26.4373 50.6293 26.204C50.7419 25.9613 50.8968 25.756 51.0939 25.588C51.3003 25.4106 51.549 25.2753 51.84 25.182C52.1309 25.0793 52.4593 25.028 52.8253 25.028C53.257 25.028 53.6512 25.1026 54.0078 25.252C54.3738 25.4013 54.6882 25.5833 54.951 25.798L54.402 26.526C54.1673 26.3486 53.9233 26.204 53.6699 26.092C53.4166 25.98 53.1397 25.924 52.8394 25.924C52.4077 25.924 52.0886 26.022 51.8822 26.218C51.6851 26.414 51.5866 26.6426 51.5866 26.904C51.5866 27.0626 51.6288 27.2026 51.7133 27.324C51.7977 27.436 51.9103 27.5386 52.0511 27.632C52.1919 27.716 52.3514 27.7953 52.5297 27.87C52.7174 27.9353 52.9098 28.0053 53.1069 28.08C53.3509 28.1733 53.5949 28.2713 53.8389 28.374C54.0923 28.4766 54.3175 28.6073 54.5146 28.766C54.7116 28.9153 54.8712 29.102 54.9932 29.326C55.1246 29.55 55.1903 29.8206 55.1903 30.138C55.1903 30.418 55.1339 30.6793 55.0213 30.922C54.9181 31.1646 54.7586 31.3793 54.5427 31.566C54.3363 31.7526 54.0735 31.8973 53.7544 32C53.4447 32.112 53.0881 32.168 52.6846 32.168Z" fill="white"/>
<path d="M59.497 32.168C59.0466 32.168 58.6243 32.0886 58.2301 31.93C57.8359 31.7713 57.4934 31.5426 57.2025 31.244C56.9209 30.936 56.6957 30.5626 56.5268 30.124C56.3673 29.676 56.2875 29.172 56.2875 28.612C56.2875 28.0426 56.3766 27.5386 56.5549 27.1C56.7333 26.652 56.9726 26.274 57.2729 25.966C57.5732 25.658 57.9204 25.4246 58.3146 25.266C58.7181 25.1073 59.1404 25.028 59.5815 25.028C60.032 25.028 60.4167 25.1073 60.7358 25.266C61.0549 25.4246 61.3364 25.6113 61.5804 25.826L60.9892 26.582C60.7921 26.4046 60.581 26.26 60.3557 26.148C60.1399 26.036 59.8959 25.98 59.6237 25.98C59.314 25.98 59.0278 26.0453 58.765 26.176C58.5023 26.2973 58.277 26.4746 58.0893 26.708C57.9016 26.9413 57.7515 27.2213 57.6389 27.548C57.5356 27.8653 57.484 28.22 57.484 28.612C57.484 29.004 57.5356 29.3586 57.6389 29.676C57.7421 29.9933 57.8829 30.2686 58.0612 30.502C58.2489 30.726 58.4741 30.9033 58.7369 31.034C58.9996 31.1553 59.2859 31.216 59.5956 31.216C59.9146 31.216 60.2056 31.1506 60.4683 31.02C60.7405 30.88 60.9845 30.7166 61.2003 30.53L61.7071 31.3C61.3974 31.5706 61.0549 31.7853 60.6795 31.944C60.3041 32.0933 59.91 32.168 59.497 32.168Z" fill="white"/>
<path d="M64.6533 32.168C64.0808 32.168 63.6022 32 63.2174 31.664C62.842 31.328 62.6543 30.852 62.6543 30.236C62.6543 29.4893 62.9875 28.92 63.6538 28.528C64.3201 28.1266 65.3853 27.8466 66.8493 27.688C66.8493 27.4733 66.8258 27.2633 66.7789 27.058C66.7413 26.8526 66.6709 26.6706 66.5677 26.512C66.4645 26.3533 66.319 26.2273 66.1313 26.134C65.953 26.0313 65.7231 25.98 65.4416 25.98C65.0474 25.98 64.6767 26.0546 64.3295 26.204C63.9823 26.3533 63.6726 26.5213 63.4004 26.708L62.9499 25.91C63.269 25.7046 63.6585 25.5086 64.1183 25.322C64.5782 25.126 65.0849 25.028 65.6386 25.028C66.4739 25.028 67.0792 25.2846 67.4546 25.798C67.8299 26.302 68.0176 26.9786 68.0176 27.828V32H67.0604L66.9619 31.188H66.9196C66.5912 31.4586 66.2393 31.692 65.8639 31.888C65.4885 32.0746 65.0849 32.168 64.6533 32.168ZM64.9911 31.244C65.3196 31.244 65.6292 31.1693 65.9202 31.02C66.2111 30.8613 66.5208 30.6326 66.8493 30.334V28.444C66.2768 28.5186 65.7935 28.6073 65.3993 28.71C65.0146 28.8126 64.7002 28.934 64.4562 29.074C64.2216 29.214 64.0479 29.3773 63.9353 29.564C63.8321 29.7413 63.7805 29.9373 63.7805 30.152C63.7805 30.544 63.8978 30.824 64.1324 30.992C64.367 31.16 64.6532 31.244 64.9911 31.244Z" fill="white"/>
<path d="M70.1701 34.87V25.196H71.1273L71.2259 25.98H71.2681C71.5778 25.7186 71.9156 25.4946 72.2816 25.308C72.657 25.1213 73.0465 25.028 73.45 25.028C73.8911 25.028 74.2805 25.112 74.6184 25.28C74.9562 25.4386 75.2378 25.672 75.463 25.98C75.6882 26.2786 75.8572 26.6426 75.9698 27.072C76.0918 27.492 76.1528 27.968 76.1528 28.5C76.1528 29.0786 76.073 29.5966 75.9135 30.054C75.7539 30.502 75.5381 30.8846 75.2659 31.202C74.9938 31.5193 74.6794 31.762 74.3228 31.93C73.9662 32.0886 73.5908 32.168 73.1966 32.168C72.8775 32.168 72.5585 32.098 72.2394 31.958C71.9297 31.818 71.6153 31.6266 71.2962 31.384L71.3244 32.574V34.87H70.1701ZM72.9995 31.202C73.2811 31.202 73.5392 31.1413 73.7738 31.02C74.0178 30.8893 74.2242 30.712 74.3932 30.488C74.5715 30.2546 74.7076 29.97 74.8014 29.634C74.9046 29.298 74.9562 28.92 74.9562 28.5C74.9562 28.1266 74.9234 27.786 74.8577 27.478C74.792 27.17 74.6841 26.9086 74.5339 26.694C74.3932 26.47 74.2055 26.2973 73.9709 26.176C73.7456 26.0546 73.4735 25.994 73.1544 25.994C72.8635 25.994 72.5679 26.0733 72.2675 26.232C71.9766 26.3906 71.6622 26.6193 71.3244 26.918V30.488C71.6341 30.7493 71.9344 30.936 72.2253 31.048C72.5162 31.1506 72.7743 31.202 72.9995 31.202Z" fill="white"/>
<path d="M80.7515 32.168C80.2917 32.168 79.86 32.0886 79.4565 31.93C79.0623 31.762 78.7151 31.5286 78.4148 31.23C78.1238 30.922 77.8939 30.5486 77.725 30.11C77.5561 29.6713 77.4716 29.172 77.4716 28.612C77.4716 28.052 77.5561 27.5526 77.725 27.114C77.9033 26.666 78.1332 26.288 78.4148 25.98C78.7057 25.672 79.0341 25.4386 79.4001 25.28C79.7661 25.112 80.1462 25.028 80.5404 25.028C80.9721 25.028 81.3568 25.1026 81.6947 25.252C82.0419 25.4013 82.3281 25.616 82.5534 25.896C82.788 26.176 82.9663 26.512 83.0883 26.904C83.2103 27.296 83.2713 27.7346 83.2713 28.22C83.2713 28.3413 83.2666 28.4626 83.2572 28.584C83.2572 28.696 83.2478 28.794 83.2291 28.878H78.6118C78.6588 29.606 78.884 30.1846 79.2875 30.614C79.7005 31.034 80.2354 31.244 80.8923 31.244C81.2208 31.244 81.5211 31.1973 81.7932 31.104C82.0748 31.0013 82.3422 30.8706 82.5956 30.712L83.0038 31.468C82.7035 31.6546 82.3704 31.818 82.0044 31.958C81.6384 32.098 81.2208 32.168 80.7515 32.168ZM78.5978 28.052H82.2578C82.2578 27.3613 82.1076 26.8386 81.8073 26.484C81.5164 26.12 81.1035 25.938 80.5685 25.938C80.3245 25.938 80.0899 25.9846 79.8647 26.078C79.6488 26.1713 79.4518 26.3113 79.2735 26.498C79.0951 26.6753 78.945 26.8946 78.823 27.156C78.7104 27.4173 78.6353 27.716 78.5978 28.052Z" fill="white"/>
<path d="M90.1168 32.168C89.2534 32.168 88.5636 31.86 88.0474 31.244C87.5407 30.628 87.2873 29.7506 87.2873 28.612C87.2873 28.0613 87.3671 27.5666 87.5266 27.128C87.6955 26.68 87.9161 26.302 88.1882 25.994C88.4604 25.686 88.7748 25.448 89.1314 25.28C89.488 25.112 89.8634 25.028 90.2575 25.028C90.6517 25.028 90.9942 25.098 91.2851 25.238C91.5761 25.378 91.8717 25.5693 92.172 25.812L92.1157 24.65V22.032H93.2841V32H92.3268L92.2283 31.202H92.1861C91.9139 31.4633 91.5995 31.692 91.2429 31.888C90.8957 32.0746 90.5203 32.168 90.1168 32.168ZM90.3701 31.202C90.6892 31.202 90.9895 31.1273 91.2711 30.978C91.5526 30.8193 91.8341 30.5813 92.1157 30.264V26.708C91.8248 26.4466 91.5432 26.2646 91.2711 26.162C91.0083 26.05 90.7361 25.994 90.4546 25.994C90.1824 25.994 89.9244 26.0593 89.6804 26.19C89.4458 26.3113 89.2393 26.4886 89.061 26.722C88.8827 26.946 88.7419 27.2166 88.6387 27.534C88.5354 27.8513 88.4838 28.206 88.4838 28.598C88.4838 29.4193 88.6481 30.0586 88.9765 30.516C89.305 30.9733 89.7695 31.202 90.3701 31.202Z" fill="white"/>
<path d="M98.3614 32.168C97.9016 32.168 97.4699 32.0886 97.0664 31.93C96.6722 31.762 96.325 31.5286 96.0247 31.23C95.7337 30.922 95.5038 30.5486 95.3349 30.11C95.166 29.6713 95.0815 29.172 95.0815 28.612C95.0815 28.052 95.166 27.5526 95.3349 27.114C95.5132 26.666 95.7431 26.288 96.0247 25.98C96.3156 25.672 96.6441 25.4386 97.01 25.28C97.3761 25.112 97.7561 25.028 98.1503 25.028C98.582 25.028 98.9667 25.1026 99.3046 25.252C99.6518 25.4013 99.938 25.616 100.163 25.896C100.398 26.176 100.576 26.512 100.698 26.904C100.82 27.296 100.881 27.7346 100.881 28.22C100.881 28.3413 100.877 28.4626 100.867 28.584C100.867 28.696 100.858 28.794 100.839 28.878H96.2217C96.2687 29.606 96.4939 30.1846 96.8974 30.614C97.3104 31.034 97.8453 31.244 98.5022 31.244C98.8307 31.244 99.131 31.1973 99.4031 31.104C99.6847 31.0013 99.9521 30.8706 100.206 30.712L100.614 31.468C100.313 31.6546 99.9803 31.818 99.6143 31.958C99.2483 32.098 98.8307 32.168 98.3614 32.168ZM96.2077 28.052H99.8677C99.8677 27.3613 99.7175 26.8386 99.4172 26.484C99.1263 26.12 98.7134 25.938 98.1784 25.938C97.9344 25.938 97.6998 25.9846 97.4746 26.078C97.2587 26.1713 97.0617 26.3113 96.8834 26.498C96.705 26.6753 96.5549 26.8946 96.4329 27.156C96.3203 27.4173 96.2452 27.716 96.2077 28.052Z" fill="white"/>
<path d="M104.36 32.168C103.872 32.168 103.407 32.0793 102.966 31.902C102.525 31.7246 102.14 31.5006 101.812 31.23L102.389 30.46C102.689 30.7026 102.994 30.8986 103.304 31.048C103.623 31.1973 103.989 31.272 104.402 31.272C104.852 31.272 105.19 31.1693 105.415 30.964C105.641 30.7586 105.753 30.5066 105.753 30.208C105.753 30.0306 105.706 29.8766 105.612 29.746C105.519 29.6153 105.397 29.5033 105.246 29.41C105.106 29.3073 104.941 29.2186 104.754 29.144C104.566 29.0693 104.378 28.9946 104.191 28.92C103.947 28.836 103.703 28.7426 103.459 28.64C103.215 28.528 102.994 28.3973 102.797 28.248C102.609 28.0893 102.454 27.9073 102.332 27.702C102.21 27.4966 102.149 27.2493 102.149 26.96C102.149 26.6893 102.201 26.4373 102.304 26.204C102.417 25.9613 102.572 25.756 102.769 25.588C102.975 25.4106 103.224 25.2753 103.515 25.182C103.806 25.0793 104.134 25.028 104.5 25.028C104.932 25.028 105.326 25.1026 105.683 25.252C106.049 25.4013 106.363 25.5833 106.626 25.798L106.077 26.526C105.842 26.3486 105.598 26.204 105.345 26.092C105.092 25.98 104.815 25.924 104.514 25.924C104.083 25.924 103.764 26.022 103.557 26.218C103.36 26.414 103.262 26.6426 103.262 26.904C103.262 27.0626 103.304 27.2026 103.388 27.324C103.473 27.436 103.585 27.5386 103.726 27.632C103.867 27.716 104.026 27.7953 104.205 27.87C104.392 27.9353 104.585 28.0053 104.782 28.08C105.026 28.1733 105.27 28.2713 105.514 28.374C105.767 28.4766 105.992 28.6073 106.19 28.766C106.387 28.9153 106.546 29.102 106.668 29.326C106.8 29.55 106.865 29.8206 106.865 30.138C106.865 30.418 106.809 30.6793 106.696 30.922C106.593 31.1646 106.434 31.3793 106.218 31.566C106.011 31.7526 105.748 31.8973 105.429 32C105.12 32.112 104.763 32.168 104.36 32.168Z" fill="white"/>
<path d="M108.469 32V25.196H109.624V32H108.469ZM109.06 23.796C108.835 23.796 108.643 23.726 108.483 23.586C108.333 23.446 108.258 23.2686 108.258 23.054C108.258 22.83 108.333 22.6526 108.483 22.522C108.643 22.382 108.835 22.312 109.06 22.312C109.286 22.312 109.473 22.382 109.624 22.522C109.783 22.6526 109.863 22.83 109.863 23.054C109.863 23.2686 109.783 23.446 109.624 23.586C109.473 23.726 109.286 23.796 109.06 23.796Z" fill="white"/>
<path d="M114.242 35.136C113.82 35.136 113.435 35.094 113.088 35.01C112.741 34.9353 112.44 34.8186 112.187 34.66C111.943 34.5013 111.75 34.31 111.61 34.086C111.478 33.862 111.413 33.6006 111.413 33.302C111.413 33.0126 111.502 32.7373 111.68 32.476C111.858 32.2146 112.102 31.9766 112.412 31.762V31.706C112.243 31.6033 112.098 31.4633 111.976 31.286C111.863 31.0993 111.807 30.8706 111.807 30.6C111.807 30.3106 111.887 30.0586 112.046 29.844C112.206 29.6293 112.375 29.4613 112.553 29.34V29.284C112.328 29.0973 112.121 28.85 111.933 28.542C111.755 28.2246 111.666 27.8606 111.666 27.45C111.666 27.0766 111.732 26.7406 111.863 26.442C112.004 26.1433 112.192 25.8913 112.426 25.686C112.661 25.4713 112.933 25.308 113.243 25.196C113.562 25.084 113.895 25.028 114.242 25.028C114.43 25.028 114.603 25.0466 114.763 25.084C114.932 25.112 115.082 25.1493 115.213 25.196H117.592V26.078H116.185C116.344 26.2366 116.476 26.4373 116.579 26.68C116.691 26.9226 116.748 27.1886 116.748 27.478C116.748 27.842 116.682 28.1733 116.551 28.472C116.419 28.7613 116.241 29.0086 116.016 29.214C115.791 29.41 115.523 29.564 115.213 29.676C114.913 29.788 114.589 29.844 114.242 29.844C114.073 29.844 113.9 29.8253 113.721 29.788C113.543 29.7413 113.374 29.6806 113.214 29.606C113.092 29.7086 112.989 29.8253 112.905 29.956C112.82 30.0773 112.778 30.2313 112.778 30.418C112.778 30.6326 112.863 30.81 113.031 30.95C113.2 31.09 113.519 31.16 113.989 31.16H115.312C116.11 31.16 116.706 31.2906 117.1 31.552C117.503 31.804 117.705 32.2146 117.705 32.784C117.705 33.1013 117.625 33.4 117.466 33.68C117.306 33.9693 117.076 34.2213 116.776 34.436C116.476 34.6507 116.11 34.8186 115.678 34.94C115.256 35.0706 114.777 35.136 114.242 35.136ZM114.242 29.074C114.439 29.074 114.622 29.0366 114.791 28.962C114.969 28.8873 115.124 28.78 115.256 28.64C115.396 28.5 115.504 28.332 115.579 28.136C115.654 27.9306 115.692 27.702 115.692 27.45C115.692 26.946 115.551 26.5586 115.27 26.288C114.988 26.008 114.646 25.868 114.242 25.868C113.839 25.868 113.496 26.008 113.214 26.288C112.933 26.5586 112.792 26.946 112.792 27.45C112.792 27.702 112.83 27.9306 112.905 28.136C112.98 28.332 113.083 28.5 113.214 28.64C113.355 28.78 113.51 28.8873 113.679 28.962C113.857 29.0366 114.045 29.074 114.242 29.074ZM114.411 34.338C114.739 34.338 115.035 34.296 115.298 34.212C115.57 34.1373 115.8 34.0346 115.988 33.904C116.175 33.7826 116.321 33.638 116.424 33.47C116.527 33.302 116.579 33.1293 116.579 32.952C116.579 32.6346 116.462 32.4153 116.227 32.294C115.992 32.1726 115.65 32.112 115.199 32.112H114.017C113.885 32.112 113.74 32.1026 113.58 32.084C113.43 32.0746 113.28 32.0466 113.13 32C112.886 32.1773 112.708 32.364 112.595 32.56C112.482 32.756 112.426 32.952 112.426 33.148C112.426 33.512 112.6 33.8013 112.947 34.016C113.304 34.2306 113.792 34.338 114.411 34.338Z" fill="white"/>
<path d="M119.027 32V25.196H119.984L120.083 26.176H120.125C120.453 25.8493 120.796 25.5786 121.153 25.364C121.519 25.14 121.941 25.028 122.419 25.028C123.142 25.028 123.668 25.252 123.996 25.7C124.334 26.148 124.503 26.8106 124.503 27.688V32H123.349V27.842C123.349 27.198 123.245 26.736 123.039 26.456C122.832 26.1666 122.504 26.022 122.053 26.022C121.697 26.022 121.382 26.1106 121.11 26.288C120.838 26.4653 120.528 26.7266 120.181 27.072V32H119.027Z" fill="white"/>
<path d="M129.498 32.168C129.039 32.168 128.607 32.0886 128.203 31.93C127.809 31.762 127.462 31.5286 127.162 31.23C126.871 30.922 126.641 30.5486 126.472 30.11C126.303 29.6713 126.218 29.172 126.218 28.612C126.218 28.052 126.303 27.5526 126.472 27.114C126.65 26.666 126.88 26.288 127.162 25.98C127.453 25.672 127.781 25.4386 128.147 25.28C128.513 25.112 128.893 25.028 129.287 25.028C129.719 25.028 130.104 25.1026 130.442 25.252C130.789 25.4013 131.075 25.616 131.3 25.896C131.535 26.176 131.713 26.512 131.835 26.904C131.957 27.296 132.018 27.7346 132.018 28.22C132.018 28.3413 132.013 28.4626 132.004 28.584C132.004 28.696 131.995 28.794 131.976 28.878H127.359C127.406 29.606 127.631 30.1846 128.034 30.614C128.447 31.034 128.982 31.244 129.639 31.244C129.968 31.244 130.268 31.1973 130.54 31.104C130.822 31.0013 131.089 30.8706 131.342 30.712L131.751 31.468C131.45 31.6546 131.117 31.818 130.751 31.958C130.385 32.098 129.968 32.168 129.498 32.168ZM127.345 28.052H131.005C131.005 27.3613 130.854 26.8386 130.554 26.484C130.263 26.12 129.85 25.938 129.315 25.938C129.071 25.938 128.837 25.9846 128.612 26.078C128.396 26.1713 128.199 26.3113 128.02 26.498C127.842 26.6753 127.692 26.8946 127.57 27.156C127.457 27.4173 127.382 27.716 127.345 28.052Z" fill="white"/>
<path d="M133.709 32V25.196H134.666L134.764 26.428H134.807C135.041 25.9986 135.323 25.658 135.651 25.406C135.989 25.154 136.355 25.028 136.749 25.028C137.021 25.028 137.265 25.0746 137.481 25.168L137.256 26.176C137.143 26.1386 137.04 26.1106 136.946 26.092C136.853 26.0733 136.735 26.064 136.594 26.064C136.304 26.064 135.999 26.1806 135.679 26.414C135.37 26.6473 135.098 27.0533 134.863 27.632V32H133.709Z" fill="white"/>
</svg>
